<svg preserveAspectRatio="none" width="100%" height="100%" overflow="visible" style="display: block;" viewBox="0 0 10 13" fill="none" xmlns="http://www.w3.org/2000/svg">
<g id="Group">
<path id="Vector" d="M6.34967 12.8894C6.26759 12.8894 6.18647 12.8544 6.13031 12.7881C5.98391 12.6158 5.76839 12.395 5.50679 12.1488C5.17751 11.8392 5.01191 11.386 5.06375 10.9368L5.13335 10.3348C5.14151 10.2657 5.17415 10.2019 5.22551 10.1548L6.73703 8.77917C6.84071 8.68461 6.99719 8.67885 7.10807 8.76525C7.11719 8.77245 8.02871 9.47901 9.31079 10.1251C9.39383 10.1668 9.45143 10.2465 9.46583 10.3382C9.48023 10.4299 9.44903 10.5235 9.38231 10.5883C8.43671 11.5118 7.43831 12.2937 6.49607 12.8491C6.45047 12.8764 6.39959 12.8894 6.34967 12.8894ZM5.69303 10.5081L5.63591 11.003C5.60471 11.2723 5.70407 11.5435 5.90135 11.7292C6.09719 11.9136 6.26615 12.0816 6.40535 12.2313C7.15367 11.7676 7.93463 11.1595 8.69159 10.452C7.87415 10.0123 7.24967 9.58269 6.94919 9.36525L5.69303 10.5081Z" fill="var(--fill-0, #8F7B49)"/>
<path id="Vector_2" d="M4.54966 8.94567C4.50262 8.94567 4.4551 8.93415 4.4119 8.91063L1.82134 7.49655C1.74454 7.45479 1.69078 7.37991 1.6759 7.29351L1.06966 3.84711C1.05382 3.75639 1.08214 3.66375 1.1455 3.59751C1.15606 3.58647 2.19238 2.47431 1.74502 1.88487C1.4359 1.47735 1.3711 1.48839 1.11574 1.60743C1.07638 1.62567 1.03366 1.63527 0.989984 1.63431L0.283905 1.62375C0.167265 1.62183 0.0635847 1.55031 0.0203847 1.44183C-0.0228153 1.33335 0.00406474 1.20999 0.0875847 1.12887C0.677985 0.556708 1.29142 0.321987 1.38646 0.287907C2.3143 -0.104733 3.2911 -0.0956126 4.21174 0.314308C4.9183 0.628708 5.54614 1.16583 6.01702 1.85079C6.18934 1.60023 6.38374 1.36839 6.59782 1.15767C6.6991 1.05831 6.85798 1.04727 6.97174 1.13223L7.72774 1.69623L8.9839 1.58919C9.08374 1.58103 9.1807 1.62471 9.24022 1.70535C9.58006 2.16663 9.76198 2.48151 9.78118 2.64087C9.80902 2.87271 9.76918 3.19719 9.66214 3.60567C9.62182 3.75975 9.46438 3.85143 9.31078 3.81111C9.1567 3.77079 9.06502 3.61335 9.10486 3.45975C9.21574 3.03687 9.22006 2.81991 9.21094 2.72343C9.18022 2.63895 9.02662 2.39895 8.87014 2.17719L7.66774 2.27943C7.59718 2.28519 7.52758 2.26551 7.47094 2.22327L6.8311 1.74615C6.61558 1.98471 6.42694 2.25015 6.26854 2.53815C6.21814 2.63031 6.12118 2.68695 6.01654 2.68695C5.91142 2.68695 5.81494 2.62983 5.76406 2.53815C5.01382 1.17735 3.39142 0.0594271 1.60294 0.821667C1.59622 0.824547 1.5895 0.826948 1.5823 0.829348C1.5799 0.830308 1.46134 0.872068 1.28182 0.966628C1.69846 0.932548 1.95766 1.21383 2.20246 1.53639C2.84134 2.37783 1.97014 3.52455 1.65958 3.88503L2.21734 7.05687L4.51078 8.30871L5.17606 7.73223L4.58998 6.52791L3.63334 5.83095C3.57382 5.78775 3.5335 5.72343 3.51958 5.65095C3.46438 5.35671 3.52246 5.07879 3.6871 4.84695C4.05238 4.33239 4.81558 4.20279 4.9015 4.18983C4.97782 4.17783 5.05558 4.19751 5.1175 4.24359L6.19606 5.04903L6.73606 3.98055C6.7831 3.88695 6.87766 3.82647 6.9823 3.82263L8.84374 3.75255C9.0031 3.74679 9.13654 3.87063 9.1423 4.02951C9.14806 4.18839 9.02422 4.32231 8.86534 4.32807L7.17334 4.39191L6.55558 5.61447C6.51718 5.69031 6.4471 5.74551 6.36454 5.76471C6.28198 5.78439 6.19462 5.76615 6.12646 5.71527L4.87654 4.78215C4.66486 4.83399 4.3135 4.95927 4.15654 5.18103C4.10134 5.25927 4.07494 5.34327 4.07542 5.43975L4.98742 6.10407C5.02534 6.13191 5.05606 6.16839 5.0767 6.21063L5.79094 7.67847C5.84806 7.79559 5.81926 7.93671 5.72038 8.02215L4.73686 8.87415C4.68454 8.92167 4.61734 8.94567 4.54966 8.94567Z" fill="var(--fill-0, #8F7B49)"/>
</g>
</svg>
